<svg width="239" height="56" viewBox="0 0 239 56" fill="none" xmlns="http://www.w3.org/2000/svg">
<g clip-path="url(#clip0_192_590)">
<path d="M132.629 44.2166H127.319C127.202 44.2166 127.085 44.275 127.027 44.3333C126.969 44.3916 126.91 44.5666 126.91 44.6833C126.91 44.9166 127.085 45.15 127.319 45.15H129.478V51.275C129.478 51.5083 129.653 51.7416 129.945 51.7416C130.061 51.7416 130.178 51.6833 130.295 51.625C130.411 51.5083 130.411 51.3916 130.411 51.275V45.15H132.57C132.687 45.15 132.804 45.0916 132.92 45.0333C132.979 44.975 133.037 44.8583 133.037 44.7416C133.037 44.625 132.979 44.5083 132.92 44.3916C132.862 44.275 132.745 44.2166 132.629 44.2166ZM136.888 46.1416C136.13 46.2 135.546 46.55 135.196 47.1333V46.6666C135.196 46.55 135.138 46.4333 135.079 46.3166C134.963 46.2 134.846 46.1416 134.729 46.2C134.613 46.2 134.496 46.2583 134.379 46.3166C134.262 46.4333 134.262 46.55 134.262 46.6666V51.2166C134.262 51.3333 134.321 51.45 134.379 51.5666C134.496 51.6833 134.613 51.6833 134.729 51.6833C134.846 51.6833 134.963 51.625 135.079 51.5666C135.196 51.45 135.254 51.3333 135.196 51.2166V47.95C135.371 47.6583 135.604 47.425 135.896 47.25C136.188 47.075 136.48 47.0166 136.83 47.0166H136.888C137.005 47.0166 137.122 46.9583 137.238 46.9C137.355 46.8416 137.355 46.6666 137.355 46.55C137.355 46.4333 137.297 46.3166 137.238 46.2C137.122 46.2 137.005 46.1416 136.888 46.1416ZM141.031 51.8C141.439 51.8 141.79 51.7416 142.14 51.5083C142.49 51.3333 142.781 51.1 143.015 50.8083V51.275C143.015 51.3916 143.073 51.5083 143.132 51.625C143.248 51.7416 143.365 51.8 143.482 51.7416C143.598 51.7416 143.715 51.6833 143.832 51.625C143.948 51.5083 143.948 51.3916 143.948 51.275V46.6666C143.948 46.55 143.89 46.4333 143.832 46.3166C143.715 46.2 143.598 46.2 143.482 46.2C143.365 46.2 143.248 46.2583 143.132 46.3166C143.015 46.4333 143.015 46.55 143.015 46.6666V49.875C142.781 50.1666 142.548 50.4 142.198 50.6333C141.906 50.8083 141.615 50.925 141.264 50.925C140.506 50.925 140.097 50.5166 140.097 49.6416V46.725C140.097 46.6083 140.039 46.4916 139.981 46.375C139.864 46.2583 139.747 46.2583 139.631 46.2583C139.514 46.2583 139.397 46.3166 139.281 46.375C139.164 46.4916 139.164 46.6083 139.164 46.725V49.7583C139.164 50.1083 139.222 50.4583 139.397 50.8083C139.514 51.1 139.747 51.3916 140.039 51.5666C140.331 51.7416 140.681 51.8 141.031 51.8ZM147.158 47.775C147.158 47.5416 147.274 47.3666 147.508 47.25C147.8 47.075 148.091 47.0166 148.383 47.0166C148.792 47.0166 149.2 47.075 149.608 47.1916C149.667 47.1916 149.725 47.1916 149.725 47.1916C149.842 47.1916 149.958 47.1333 150.017 47.075C150.075 47.0166 150.134 46.9 150.134 46.7833C150.134 46.6666 150.134 46.6083 150.075 46.55C150.017 46.4916 149.958 46.4333 149.842 46.375C149.375 46.2 148.85 46.0833 148.325 46.0833C147.8 46.025 147.216 46.2 146.808 46.55C146.458 46.8416 146.282 47.3083 146.282 47.775C146.282 48.0666 146.399 48.4166 146.574 48.65C146.749 48.8833 146.983 49.0583 147.274 49.1166C147.625 49.2333 147.975 49.35 148.325 49.4083C148.616 49.4666 148.908 49.5833 149.2 49.7C149.375 49.7583 149.492 49.9333 149.492 50.05C149.492 50.575 149.083 50.8083 148.325 50.8083C148.091 50.8083 147.8 50.8083 147.566 50.75C147.333 50.6916 147.099 50.6333 146.866 50.5166C146.808 50.5166 146.749 50.4583 146.691 50.4583C146.574 50.4583 146.458 50.5166 146.399 50.575C146.341 50.6333 146.282 50.75 146.282 50.8666C146.282 50.9833 146.341 51.1583 146.458 51.2166C147.041 51.5666 147.741 51.6833 148.383 51.6833C148.908 51.7416 149.433 51.5666 149.9 51.2166C150.25 50.925 150.425 50.5166 150.425 50.1083C150.425 49.8166 150.367 49.4666 150.134 49.2333C149.958 49 149.725 48.825 149.433 48.7666C149.083 48.65 148.733 48.5333 148.441 48.475C148.15 48.4166 147.8 48.3 147.508 48.1833C147.274 48.1833 147.158 47.95 147.158 47.775ZM155.093 50.8666C155.035 50.8666 155.035 50.8666 154.977 50.8666H154.86C154.743 50.925 154.568 50.925 154.451 50.925C154.276 50.925 154.101 50.8666 153.985 50.8083C153.81 50.6916 153.751 50.4583 153.81 50.2833V47.075H155.035C155.152 47.075 155.268 47.0166 155.327 46.9583C155.385 46.9 155.443 46.7833 155.443 46.6666C155.443 46.4333 155.268 46.2583 155.035 46.2583H153.81V45.3833C153.81 45.325 153.81 45.2666 153.751 45.2083C153.693 45.15 153.635 45.15 153.635 45.15C153.576 45.15 153.518 45.2083 153.459 45.2666L152.001 46.6666C151.942 46.725 151.884 46.7833 151.884 46.8416C151.884 46.9583 151.942 47.0166 152.059 47.0166H152.818V50.3416C152.818 51.275 153.343 51.7416 154.393 51.7416C154.685 51.7416 154.977 51.6833 155.268 51.5666C155.443 51.5083 155.502 51.3333 155.502 51.2166C155.502 51.1 155.443 51.0416 155.385 50.925C155.268 50.8666 155.21 50.8666 155.093 50.8666ZM161.57 50.5166C161.512 50.5166 161.453 50.5166 161.395 50.575C161.162 50.6916 160.987 50.75 160.753 50.8083C160.52 50.8666 160.228 50.925 159.995 50.8666C159.528 50.8666 159.061 50.75 158.711 50.4583C158.361 50.1666 158.186 49.7583 158.186 49.2916H161.803C161.92 49.2916 162.037 49.2333 162.154 49.175C162.27 49.0583 162.27 48.9416 162.27 48.825C162.27 48.3583 162.154 47.8916 161.979 47.4833C161.803 47.075 161.512 46.725 161.103 46.4916C160.695 46.2583 160.228 46.0833 159.761 46.1416C159.236 46.1416 158.769 46.2583 158.361 46.55C158.011 46.7833 157.661 47.1916 157.486 47.6C157.311 48.0666 157.194 48.5333 157.194 49C157.135 49.7583 157.427 50.5166 157.894 51.1C158.419 51.625 159.178 51.8583 159.936 51.8583C160.578 51.9166 161.22 51.7416 161.803 51.3916C161.979 51.3333 162.095 51.1583 162.095 50.9833C162.095 50.8666 162.037 50.75 161.979 50.6916C161.745 50.575 161.628 50.5166 161.57 50.5166ZM159.645 46.9583C159.878 46.9583 160.111 47.0166 160.345 47.1333C160.578 47.25 160.812 47.425 160.928 47.6583C161.103 47.8916 161.162 48.2416 161.22 48.5333H158.069C158.069 48.2416 158.186 47.95 158.361 47.6583C158.478 47.425 158.711 47.25 158.944 47.1333C159.119 47.0166 159.353 46.9583 159.645 46.9583ZM166.588 46.1416C166.121 46.1416 165.713 46.2583 165.363 46.4916C164.954 46.725 164.604 47.075 164.429 47.4833C163.962 48.4166 163.962 49.5833 164.429 50.5166C164.663 50.925 164.954 51.275 165.363 51.5083C165.713 51.7416 166.18 51.8583 166.588 51.8583C167.288 51.8583 167.93 51.5666 168.397 51.0416V51.3333C168.397 51.45 168.455 51.5666 168.514 51.6833C168.63 51.8 168.747 51.8 168.864 51.8C169.097 51.8 169.331 51.5666 169.331 51.3333V44.3333C169.331 44.2166 169.272 44.1 169.214 43.9833C169.097 43.8666 168.98 43.8083 168.864 43.8666C168.747 43.8666 168.63 43.925 168.514 43.9833C168.397 44.1 168.339 44.2166 168.397 44.3333V46.9583C167.93 46.4333 167.23 46.1416 166.588 46.1416ZM166.705 50.8666C166.238 50.8666 165.771 50.6916 165.421 50.3416C164.779 49.525 164.779 48.3583 165.421 47.4833C165.771 47.1333 166.238 46.9583 166.705 46.9583C166.997 46.9583 167.347 47.0166 167.638 47.1916C167.93 47.3666 168.164 47.5416 168.397 47.775V49.9916C168.164 50.225 167.93 50.4 167.638 50.575C167.347 50.8083 166.997 50.8666 166.705 50.8666ZM176.274 46.2583C176.274 45.9083 176.449 45.5583 176.799 45.3833C177.208 45.15 177.675 45.0333 178.141 45.0916C178.725 45.0916 179.308 45.2083 179.834 45.3833C179.892 45.3833 179.95 45.4416 180.009 45.4416C180.125 45.4416 180.242 45.3833 180.3 45.325C180.359 45.2666 180.417 45.15 180.417 45.0333C180.417 44.8583 180.3 44.6833 180.125 44.625C179.425 44.3916 178.725 44.275 178.025 44.275C177.5 44.275 176.974 44.3333 176.508 44.5666C176.099 44.7416 175.807 45.0333 175.574 45.3833C175.341 45.7333 175.224 46.0833 175.282 46.4916C175.282 46.9 175.399 47.3083 175.691 47.6C175.924 47.8916 176.274 48.0666 176.624 48.2416C177.091 48.4166 177.558 48.5333 178.025 48.65C178.433 48.7666 178.783 48.8833 179.017 48.9416C179.25 49 179.425 49.1166 179.6 49.2916C179.775 49.4083 179.834 49.6416 179.834 49.8166C179.834 50.6333 179.192 51.0416 177.966 51.0416C177.266 51.0416 176.508 50.925 175.866 50.575C175.807 50.575 175.749 50.5166 175.691 50.5166C175.574 50.5166 175.457 50.575 175.399 50.6333C175.224 50.8083 175.224 51.0416 175.341 51.2166C175.399 51.275 175.457 51.3333 175.574 51.3916C176.391 51.7416 177.208 51.9166 178.083 51.9166C178.55 51.9166 179.075 51.8583 179.483 51.625C179.892 51.45 180.184 51.2166 180.417 50.8666C180.65 50.575 180.767 50.1666 180.767 49.8166C180.767 49.4083 180.65 49 180.417 48.65C180.184 48.3583 179.892 48.1833 179.542 48.0083C179.075 47.8333 178.667 47.7166 178.2 47.6C177.85 47.5416 177.5 47.425 177.149 47.3083C176.916 47.25 176.683 47.075 176.508 46.9583C176.333 46.725 176.274 46.4916 176.274 46.2583ZM183.918 44.5666C183.918 44.275 183.685 44.0416 183.393 44.0416H183.334C183.218 44.0416 183.043 44.1 182.926 44.2166C182.809 44.3333 182.751 44.45 182.751 44.625V44.6833C182.751 44.8 182.809 44.975 182.926 45.0916C183.043 45.2083 183.159 45.2666 183.334 45.2666H183.393C183.51 45.2666 183.685 45.2083 183.801 45.0916C183.86 44.8583 183.918 44.7416 183.918 44.5666ZM183.334 46.2C183.218 46.2 183.101 46.2583 182.984 46.3166C182.868 46.4333 182.868 46.55 182.868 46.6666V51.275C182.868 51.3916 182.926 51.5083 182.984 51.625C183.101 51.7416 183.218 51.7416 183.334 51.7416C183.451 51.7416 183.568 51.6833 183.685 51.625C183.801 51.5083 183.86 51.3916 183.801 51.275V46.6666C183.801 46.55 183.743 46.4333 183.685 46.3166C183.626 46.2583 183.51 46.2 183.334 46.2ZM189.403 46.1416C188.994 46.1416 188.644 46.2 188.294 46.4333C187.944 46.6083 187.652 46.8416 187.419 47.1333V46.6666C187.419 46.55 187.361 46.4333 187.302 46.3166C187.186 46.2 187.069 46.1416 186.952 46.2C186.835 46.2 186.719 46.2583 186.602 46.3166C186.485 46.4333 186.485 46.55 186.485 46.6666V51.2166C186.485 51.3333 186.544 51.45 186.602 51.5666C186.719 51.6833 186.835 51.6833 186.952 51.6833C187.069 51.6833 187.186 51.625 187.302 51.5666C187.419 51.45 187.477 51.3333 187.419 51.2166V48.0083C187.652 47.7166 187.886 47.4833 188.236 47.25C188.528 47.075 188.878 46.9583 189.169 46.9583C189.928 46.9583 190.336 47.3666 190.336 48.2416V51.1583C190.336 51.275 190.395 51.3916 190.453 51.5083C190.57 51.625 190.687 51.625 190.803 51.625C190.92 51.625 191.037 51.5666 191.153 51.5083C191.27 51.3916 191.328 51.275 191.27 51.1583V48.125C191.27 47.775 191.212 47.425 191.037 47.075C190.92 46.7833 190.687 46.4916 190.395 46.3166C190.103 46.2 189.753 46.1416 189.403 46.1416ZM197.805 50.4583C197.747 50.4583 197.63 50.4583 197.572 50.5166C197.397 50.6333 197.163 50.6916 196.988 50.75C196.813 50.8083 196.58 50.8083 196.346 50.8083C195.296 50.8666 194.363 50.05 194.304 49C194.246 47.95 195.063 47.0166 196.113 46.9583C196.171 46.9583 196.288 46.9583 196.346 46.9583C196.58 46.9583 196.755 46.9583 196.988 47.0166C197.222 47.075 197.397 47.1916 197.572 47.25C197.63 47.3083 197.747 47.3083 197.805 47.3083C197.922 47.3083 198.039 47.25 198.097 47.1916C198.272 47.0166 198.272 46.7833 198.097 46.6083L198.039 46.55C197.805 46.375 197.572 46.2583 197.28 46.2C196.988 46.0833 196.638 46.025 196.288 46.0833C195.821 46.0833 195.296 46.2 194.888 46.4333C194.479 46.6666 194.129 47.0166 193.837 47.425C193.312 48.3583 193.312 49.525 193.837 50.4583C194.071 50.8666 194.421 51.2166 194.888 51.45C195.296 51.6833 195.821 51.8 196.288 51.8C196.638 51.8 196.93 51.7416 197.28 51.6833C197.572 51.5666 197.805 51.45 198.039 51.3333C198.214 51.2166 198.33 50.9833 198.214 50.75C198.214 50.6916 198.155 50.6916 198.155 50.6916C197.98 50.5166 197.922 50.4583 197.805 50.4583ZM204.457 50.5166C204.399 50.5166 204.34 50.5166 204.282 50.575C204.049 50.6916 203.874 50.75 203.64 50.8083C203.407 50.8666 203.115 50.925 202.882 50.8666C202.415 50.8666 201.948 50.75 201.598 50.4583C201.248 50.1666 201.073 49.7583 201.073 49.2916H204.69C204.807 49.2916 204.924 49.2333 205.041 49.175C205.157 49.0583 205.157 48.9416 205.157 48.825C205.157 48.3583 205.041 47.8916 204.865 47.4833C204.69 47.075 204.399 46.725 203.99 46.4916C203.582 46.2583 203.115 46.0833 202.648 46.1416C202.123 46.1416 201.656 46.2583 201.248 46.55C200.898 46.7833 200.548 47.1916 200.373 47.6C200.198 48.0666 200.081 48.5333 200.081 49C200.022 49.7583 200.314 50.5166 200.781 51.1C201.306 51.625 202.065 51.8583 202.823 51.8583C203.465 51.9166 204.107 51.7416 204.69 51.3916C204.865 51.3333 204.982 51.1583 204.982 50.9833C204.982 50.8666 204.924 50.75 204.865 50.6916C204.632 50.575 204.515 50.5166 204.457 50.5166ZM202.531 46.9583C202.765 46.9583 202.998 47.0166 203.232 47.1333C203.465 47.25 203.698 47.425 203.815 47.6583C203.99 47.8916 204.049 48.2416 204.107 48.5333H200.956C200.956 48.2416 201.073 47.95 201.248 47.6583C201.364 47.425 201.598 47.25 201.831 47.1333C202.006 47.0166 202.24 46.9583 202.531 46.9583ZM215.368 50.8083H211.692C211.809 50.575 211.984 50.3416 212.218 50.1666C212.451 49.9916 212.859 49.7 213.326 49.35C213.851 49 214.318 48.7083 214.668 48.4166C215.018 48.125 215.31 47.8333 215.543 47.4833C215.777 47.1333 215.894 46.725 215.894 46.3166C215.894 45.9083 215.777 45.5 215.543 45.2083C215.31 44.8583 215.018 44.625 214.668 44.45C214.26 44.275 213.851 44.1583 213.443 44.1583C212.626 44.1583 211.809 44.3333 211.109 44.6833C210.934 44.7416 210.875 44.9166 210.875 45.0916C210.875 45.2083 210.934 45.325 210.992 45.3833C211.051 45.4416 211.167 45.5 211.284 45.5C211.342 45.5 211.401 45.5 211.459 45.4416C212.042 45.2083 212.626 45.0333 213.268 45.0333C213.735 44.975 214.201 45.0916 214.552 45.3833C214.843 45.6166 214.96 45.9666 214.96 46.375C214.96 46.6666 214.843 46.9 214.727 47.075C214.552 47.3083 214.318 47.5416 214.085 47.7166C213.851 47.8916 213.501 48.125 213.034 48.4166C212.509 48.7666 212.101 49 211.809 49.2916C211.517 49.525 211.226 49.8166 211.051 50.1083C210.817 50.4 210.7 50.75 210.7 51.1583C210.7 51.3333 210.759 51.45 210.875 51.5666C210.992 51.6833 211.109 51.7416 211.284 51.7416H215.368C215.485 51.7416 215.602 51.6833 215.719 51.625C215.777 51.5666 215.835 51.45 215.835 51.3333C215.835 51.2166 215.777 51.1 215.719 50.9833C215.602 50.8083 215.485 50.8083 215.368 50.8083ZM220.853 44.1583C220.036 44.1 219.219 44.5083 218.694 45.2083C217.702 46.9583 217.702 49.0583 218.694 50.8083C219.628 51.975 221.32 52.2083 222.545 51.275C222.72 51.1583 222.837 50.9833 223.012 50.8083C224.004 49.0583 224.004 46.9583 223.012 45.2083C222.545 44.5083 221.729 44.1 220.853 44.1583ZM220.853 50.925C220.27 50.925 219.745 50.6333 219.453 50.1666C218.811 48.825 218.811 47.25 219.453 45.85C219.978 45.0916 220.97 44.8583 221.787 45.325C222.02 45.4416 222.195 45.6166 222.312 45.85C222.954 47.1916 222.954 48.7666 222.312 50.1666C222.02 50.6333 221.437 50.925 220.853 50.925ZM228.439 44.1583C227.622 44.1 226.805 44.5083 226.28 45.2083C225.288 46.9583 225.288 49.0583 226.28 50.8083C227.213 51.975 228.906 52.2083 230.131 51.275C230.306 51.1583 230.423 50.9833 230.598 50.8083C231.59 49.0583 231.59 46.9583 230.598 45.2083C230.073 44.5083 229.256 44.1 228.439 44.1583ZM228.439 50.925C227.855 50.925 227.33 50.6333 227.038 50.1666C226.396 48.825 226.396 47.25 227.038 45.85C227.505 45.0916 228.555 44.8583 229.372 45.325C229.606 45.4416 229.781 45.6166 229.897 45.85C230.539 47.1916 230.539 48.7666 229.897 50.1666C229.547 50.6333 229.022 50.925 228.439 50.925ZM236.958 47.8333C237.308 47.7166 237.6 47.4833 237.891 47.1916C238.125 46.8416 238.3 46.4333 238.241 46.025C238.241 45.4416 238.008 44.9166 237.6 44.625C237.016 44.275 236.374 44.1 235.732 44.1C234.974 44.1 234.274 44.275 233.632 44.625C233.515 44.6833 233.398 44.8583 233.398 44.975C233.398 45.0916 233.457 45.2083 233.515 45.2666C233.573 45.325 233.69 45.3833 233.807 45.3833C233.865 45.3833 233.924 45.3833 233.982 45.325C234.507 45.0916 235.032 44.975 235.616 44.975C236.083 44.975 236.491 45.0333 236.841 45.2666C237.133 45.4416 237.25 45.7333 237.25 46.0833C237.25 46.4916 237.016 46.8416 236.666 47.075C236.141 47.3083 235.616 47.425 235.032 47.425H234.974C234.857 47.425 234.74 47.4833 234.682 47.5416C234.507 47.7166 234.507 48.0083 234.682 48.1833C234.74 48.2416 234.857 48.3 234.974 48.3H235.149C236.724 48.3 237.483 48.7666 237.483 49.6416C237.483 50.05 237.25 50.4 236.899 50.575C236.433 50.75 235.966 50.8666 235.499 50.8666C234.916 50.8666 234.332 50.75 233.807 50.575C233.749 50.575 233.69 50.5166 233.632 50.5166C233.515 50.5166 233.398 50.575 233.34 50.6333C233.282 50.6916 233.223 50.8083 233.223 50.925C233.223 51.0416 233.223 51.1 233.282 51.1583C233.34 51.2166 233.398 51.275 233.457 51.3333C234.157 51.625 234.916 51.7416 235.674 51.7416C236.374 51.8 237.074 51.5666 237.658 51.2166C238.183 50.8666 238.475 50.2833 238.417 49.7C238.475 49.2333 238.3 48.7083 237.95 48.3583C237.716 48.125 237.366 47.95 236.958 47.8333Z" fill="black"/>
<path d="M143.89 33.95C143.715 33.95 143.482 34.0083 143.307 34.0667C142.431 34.5333 141.556 34.8833 140.623 35.175C139.631 35.4667 138.58 35.5833 137.588 35.525C135.955 35.5833 134.379 35.175 132.979 34.4167C131.753 33.7167 130.761 32.6667 130.12 31.3833C128.836 28.5833 128.836 25.375 130.12 22.575C130.761 21.2917 131.753 20.2417 132.979 19.5417C134.379 18.7833 135.955 18.375 137.588 18.4333C138.639 18.4333 139.631 18.55 140.623 18.7833C141.556 19.075 142.49 19.425 143.307 19.8917C143.482 19.95 143.657 20.0083 143.89 20.0083C144.24 20.0083 144.59 19.8917 144.824 19.6583C145.057 19.425 145.174 19.1333 145.174 18.8417C145.174 18.3167 144.94 17.85 144.474 17.6167C143.423 17.0333 142.315 16.5083 141.148 16.1583C139.922 15.8083 138.639 15.6333 137.355 15.6333C135.371 15.575 133.446 16.1 131.695 16.975C130.061 17.9083 128.661 19.25 127.786 20.9417C126.794 22.8083 126.327 24.85 126.385 26.95C126.327 29.05 126.852 31.0917 127.786 32.9583C128.661 34.5917 130.061 35.9917 131.695 36.925C133.446 37.8583 135.371 38.325 137.355 38.2667C138.639 38.2667 139.922 38.0917 141.148 37.7417C142.315 37.3917 143.423 36.925 144.474 36.2833C144.94 36.05 145.174 35.5833 145.174 35.0583C145.174 34.7667 145.057 34.4167 144.824 34.1833C144.59 34.0667 144.24 33.95 143.89 33.95ZM154.977 21.6417C153.109 21.6417 151.242 22.05 149.55 22.75C149.025 22.925 148.733 23.3917 148.733 23.975C148.733 24.2667 148.85 24.6167 149.083 24.85C149.317 25.0833 149.608 25.2 149.9 25.2C150.017 25.2 150.192 25.2 150.309 25.1417C151.009 24.9083 151.651 24.7333 152.351 24.5583C153.051 24.4417 153.751 24.3833 154.451 24.3833C155.91 24.3833 156.96 24.675 157.661 25.3167C158.361 25.9583 158.653 26.95 158.653 28.2917V28.525H154.86C152.468 28.525 150.717 28.9917 149.492 29.925C148.325 30.8 147.625 32.2 147.683 33.6583C147.683 34.5333 147.916 35.4083 148.383 36.1667C148.85 36.8667 149.492 37.45 150.25 37.8C151.067 38.2083 151.942 38.3833 152.818 38.3833C155.035 38.4417 157.194 37.5667 158.711 35.9917V36.75C158.711 37.5083 159.294 38.15 160.111 38.15C160.111 38.15 160.111 38.15 160.17 38.15C160.578 38.15 160.928 38.0333 161.162 37.7417C161.453 37.5083 161.57 37.1 161.57 36.75V27.825C161.57 26.775 161.337 25.725 160.87 24.7917C160.403 23.8583 159.586 23.0417 158.653 22.5167C157.544 21.875 156.26 21.5833 154.977 21.6417ZM153.868 35.8167C152.701 35.8167 151.826 35.5833 151.301 35.1167C150.775 34.65 150.484 34.0083 150.542 33.3083C150.542 31.675 152.117 30.8 155.268 30.8H158.711V33.425C158.127 34.125 157.369 34.7083 156.552 35.1167C155.677 35.5833 154.802 35.8167 153.868 35.8167ZM168.28 26.425C168.28 25.7833 168.63 25.1417 169.214 24.85C170.031 24.3833 170.964 24.2083 171.84 24.2083C173.065 24.2083 174.232 24.3833 175.399 24.7917C175.516 24.85 175.691 24.85 175.807 24.85C176.157 24.85 176.449 24.7333 176.683 24.5C176.916 24.2667 177.033 23.975 177.033 23.625C177.033 23.3917 176.974 23.1 176.799 22.925C176.624 22.6917 176.391 22.5167 176.099 22.4583C174.64 21.9333 173.123 21.6417 171.548 21.7C169.564 21.7 168.047 22.1667 166.997 23.1C165.946 23.975 165.363 25.3167 165.421 26.7167C165.363 27.65 165.713 28.525 166.296 29.225C166.88 29.8667 167.58 30.3333 168.339 30.6833C169.331 31.0333 170.381 31.3833 171.373 31.6167C172.248 31.85 173.123 32.0833 173.999 32.4917C174.465 32.6667 174.815 33.075 174.815 33.6C174.815 35.1167 173.648 35.8167 171.314 35.8167C170.556 35.8167 169.797 35.7583 169.039 35.5833C168.339 35.4083 167.697 35.175 167.055 34.8833C166.88 34.825 166.705 34.7667 166.471 34.7667C166.121 34.7667 165.83 34.8833 165.596 35.1167C165.363 35.35 165.246 35.7 165.246 35.9917C165.246 36.4 165.421 36.8083 165.771 37.0417C167.522 37.975 169.506 38.5 171.489 38.4417C173.415 38.4417 174.932 37.975 175.982 37.1C176.974 36.2833 177.616 35.0583 177.558 33.775C177.616 32.8417 177.324 31.9083 176.741 31.15C176.216 30.5083 175.516 30.0417 174.757 29.6917C173.765 29.3417 172.773 28.9917 171.723 28.7583C170.789 28.5833 169.856 28.2917 168.98 27.8833C168.572 27.5917 168.222 27.0667 168.28 26.425ZM184.677 16.9167C184.677 16.0417 183.976 15.3417 183.101 15.2833H182.926C182.051 15.2833 181.351 15.9833 181.351 16.9167V17.0333C181.351 17.9083 182.051 18.6083 182.926 18.6667H183.101C183.976 18.6667 184.677 17.9667 184.677 17.0333V16.9167ZM182.984 21.7583C182.576 21.7583 182.226 21.9333 181.992 22.1667C181.701 22.4583 181.584 22.8083 181.584 23.2167V36.75C181.584 37.5083 182.167 38.15 182.984 38.15C182.984 38.15 182.984 38.15 183.043 38.15C183.451 38.15 183.801 38.0333 184.035 37.7417C184.326 37.5083 184.443 37.1 184.443 36.75V23.2167C184.443 22.4583 183.86 21.8167 183.101 21.7583C183.043 21.7583 182.984 21.7583 182.984 21.7583ZM198.214 21.6417C197.047 21.6417 195.938 21.875 194.946 22.4C193.954 22.9833 193.137 23.6833 192.379 24.5V23.2167C192.379 22.4 191.737 21.7583 190.92 21.7583C190.511 21.7583 190.161 21.9333 189.928 22.1667C189.636 22.4583 189.52 22.8083 189.52 23.2167V36.75C189.52 37.5083 190.103 38.15 190.92 38.15C190.92 38.15 190.92 38.15 190.978 38.15C191.387 38.15 191.737 38.0333 191.97 37.7417C192.262 37.5083 192.379 37.1 192.379 36.75V27.3C193.021 26.425 193.837 25.725 194.713 25.0833C195.53 24.5583 196.521 24.2667 197.513 24.2667C199.789 24.2667 200.956 25.55 200.956 28.1167V36.75C200.956 37.5083 201.54 38.15 202.356 38.15C202.356 38.15 202.356 38.15 202.415 38.15C202.823 38.15 203.173 38.0333 203.407 37.7417C203.698 37.5083 203.815 37.1 203.815 36.75V27.7667C203.815 26.7167 203.582 25.6083 203.115 24.675C202.707 23.7417 202.006 22.9833 201.189 22.4583C200.314 21.875 199.264 21.5833 198.214 21.6417ZM215.66 21.6417C214.201 21.5833 212.743 21.9917 211.401 22.6917C210.175 23.3917 209.242 24.3833 208.6 25.6083C207.258 28.35 207.258 31.5583 208.6 34.3583C209.242 35.5833 210.175 36.6333 211.401 37.275C214.026 38.675 217.177 38.675 219.861 37.275C221.087 36.575 222.079 35.5833 222.662 34.3583C224.004 31.6167 224.004 28.4083 222.662 25.6083C222.02 24.3833 221.028 23.3333 219.861 22.6917C218.578 21.9333 217.119 21.5833 215.66 21.6417ZM215.66 35.7C214.785 35.7 213.91 35.525 213.151 35.1167C212.334 34.7083 211.692 34.0083 211.226 33.25C210.7 32.2583 210.409 31.0917 210.467 29.9833C210.409 28.875 210.7 27.7083 211.226 26.7167C211.692 25.9 212.334 25.2583 213.151 24.85C213.91 24.4417 214.785 24.2667 215.66 24.2667C216.535 24.2667 217.352 24.4417 218.111 24.85C218.928 25.2583 219.628 25.9 220.036 26.7167C220.562 27.7083 220.853 28.8167 220.795 29.9833C220.853 31.15 220.562 32.2583 220.036 33.25C219.57 34.0667 218.928 34.7083 218.111 35.1167C217.352 35.4667 216.535 35.7 215.66 35.7ZM229.547 26.425C229.547 25.7833 229.897 25.1417 230.481 24.85C231.298 24.3833 232.231 24.2083 233.107 24.2083C234.332 24.2083 235.499 24.3833 236.666 24.7917C236.783 24.85 236.958 24.85 237.074 24.85C237.425 24.85 237.716 24.7333 237.95 24.5C238.183 24.2667 238.3 23.975 238.3 23.625C238.3 23.3917 238.241 23.1 238.066 22.925C237.891 22.6917 237.658 22.5167 237.366 22.4583C235.907 21.9333 234.39 21.6417 232.815 21.7C230.831 21.7 229.314 22.1667 228.264 23.1C227.213 23.975 226.63 25.3167 226.688 26.7167C226.63 27.65 226.98 28.525 227.563 29.225C228.147 29.8667 228.847 30.3333 229.606 30.6833C230.598 31.0333 231.648 31.3833 232.64 31.6167C233.515 31.85 234.39 32.0833 235.266 32.4917C235.732 32.6667 236.083 33.075 236.083 33.6C236.083 35.1167 234.916 35.8167 232.582 35.8167C231.823 35.8167 231.064 35.7583 230.306 35.5833C229.606 35.4083 228.964 35.175 228.322 34.8833C228.147 34.825 227.972 34.7667 227.739 34.7667C227.388 34.7667 227.097 34.8833 226.863 35.1167C226.63 35.35 226.513 35.7 226.513 35.9917C226.513 36.4 226.688 36.8083 227.038 37.0417C228.789 37.975 230.773 38.5 232.757 38.4417C234.682 38.4417 236.199 37.975 237.25 37.1C238.241 36.2833 238.883 35.0583 238.825 33.775C238.883 32.8417 238.592 31.9083 238.008 31.15C237.483 30.5083 236.783 30.0417 236.024 29.6917C235.032 29.3417 234.04 28.9917 232.99 28.7583C232.056 28.5833 231.123 28.2917 230.248 27.8833C229.897 27.5917 229.547 27.0667 229.547 26.425Z" fill="black"/>
<path d="M94.5847 0.174988C79.1804 0.174988 66.752 12.6583 66.752 28C66.752 43.3417 79.2388 55.825 94.5847 55.825C109.931 55.825 122.417 43.3417 122.417 28C122.417 12.6583 109.989 0.174988 94.5847 0.174988ZM91.8423 31.5583C91.9006 33.25 91.4338 34.8833 90.5002 36.2833C89.6834 37.5083 88.458 38.5583 87.116 39.1417C84.3735 40.425 81.2227 40.425 78.5386 39.1417C77.1382 38.5 75.9712 37.5083 75.1543 36.2833C74.2207 34.8833 73.8123 33.1917 73.8123 31.5583V19.1333C73.8123 18.725 73.929 18.375 74.2207 18.0833C74.4541 17.7917 74.8625 17.675 75.2126 17.675C76.0295 17.675 76.6714 18.3167 76.6714 19.1333V31.675C76.613 32.7833 76.9631 33.95 77.5466 34.8833C78.1301 35.7583 78.8887 36.4583 79.8223 36.8667C81.7478 37.7417 83.9067 37.7417 85.8323 36.8667C86.7659 36.4583 87.5244 35.7583 88.1079 34.8833C88.6914 33.8917 88.9832 32.7833 88.9832 31.675V19.1333C88.9832 18.725 89.0999 18.375 89.3916 18.0833C89.625 17.7917 90.0334 17.675 90.3835 17.675C90.792 17.675 91.1421 17.85 91.4338 18.0833C91.7256 18.3167 91.8423 18.725 91.8423 19.1333V31.5583ZM113.432 40.0167C112.965 40.0167 112.556 39.8417 112.323 39.4333L104.212 29.05L100.653 32.6667V38.5583C100.653 38.9667 100.478 39.3167 100.245 39.55C99.9529 39.8417 99.6028 39.9583 99.1943 39.9583H99.136C98.3774 39.9583 97.7356 39.3167 97.7939 38.5583V19.1333C97.7939 18.725 97.9106 18.375 98.2024 18.0833C98.4358 17.7917 98.8442 17.675 99.1943 17.675C100.011 17.675 100.653 18.3167 100.653 19.1333V29.1667L111.389 18.2C111.681 17.9083 112.031 17.675 112.44 17.675C112.79 17.675 113.14 17.7917 113.373 18.025C113.607 18.2583 113.782 18.6083 113.782 18.9C113.782 19.25 113.665 19.6 113.432 19.8917L106.196 27.1833L114.54 37.6833C114.774 37.9167 114.89 38.2667 114.89 38.6167C114.89 38.9667 114.774 39.3167 114.54 39.6083C114.19 39.8417 113.84 40.0167 113.432 40.0167Z" fill="black"/>
<path d="M12.7786 26.5417C13.6538 26.1334 14.4124 25.55 14.9959 24.7334C16.4546 22.4 16.0461 19.3667 14.0039 17.5584C12.7786 16.5084 11.0281 16.0417 8.81079 16.0417H1.40039C0.991943 16.0417 0.641846 16.2167 0.408447 16.45C0.116699 16.7417 0 17.0917 0 17.4417V36.575C0 37.3334 0.583496 37.975 1.40039 37.975C1.40039 37.975 1.40039 37.975 1.45874 37.975H9.04419C11.845 37.975 13.8872 37.45 15.1709 36.3417C16.5129 35.2334 17.2131 33.5417 17.0964 31.7917C17.1548 30.5667 16.688 29.3417 15.8711 28.4667C15.0542 27.5917 13.9456 26.95 12.7786 26.5417ZM13.1287 21.9334C13.187 22.925 12.7786 23.9167 12.02 24.5584C11.2615 25.2 9.97778 25.4917 8.1106 25.4917H2.85913V18.6667H8.57739C9.74438 18.6084 10.9114 18.9 11.9033 19.5417C12.6619 20.125 13.1287 21 13.1287 21.9334ZM8.75244 35.35H2.85913V28.1167H8.75244C12.4285 28.1167 14.2957 29.3417 14.2957 31.7334C14.354 32.7834 13.8872 33.775 13.012 34.4167C12.1951 35 10.7363 35.35 8.75244 35.35ZM33.2593 34.5334C33.0842 34.5334 32.8508 34.5917 32.6758 34.65C32.0339 34.9417 31.3921 35.175 30.7502 35.35C29.9917 35.525 29.2332 35.6417 28.4163 35.5834C27.0159 35.6417 25.6155 35.2334 24.5652 34.3584C23.6316 33.4834 23.0481 32.2584 22.9314 30.9167H33.551C34.3096 30.975 34.9514 30.3917 35.0098 29.6334C35.0098 29.575 35.0098 29.575 35.0098 29.5167C35.0098 28.175 34.718 26.775 34.1345 25.55C33.551 24.3834 32.6758 23.3334 31.5671 22.6334C30.3418 21.875 28.9414 21.525 27.541 21.525C26.0823 21.4667 24.6235 21.875 23.3398 22.6917C22.2312 23.45 21.356 24.5 20.8308 25.725C20.3057 27.0084 20.0139 28.4084 20.0139 29.8667C20.0139 32.4917 20.7141 34.5917 22.1729 36.05C23.6316 37.5084 25.6155 38.2667 28.1245 38.2667C30.05 38.3834 31.9756 37.8584 33.6094 36.8667C34.0762 36.6334 34.3679 36.225 34.4263 35.7C34.4263 35.35 34.3096 35.0584 34.0762 34.825C33.9011 34.65 33.6094 34.5334 33.2593 34.5334ZM27.5994 24.0334C28.2996 24.0334 29.0581 24.2084 29.7 24.5C30.4001 24.85 30.9836 25.375 31.4504 26.0167C31.9172 26.775 32.209 27.7084 32.2673 28.5834H22.9897C22.9897 27.65 23.2815 26.775 23.7483 26.0167C24.1567 25.375 24.7402 24.85 25.4988 24.5C26.1406 24.2084 26.8408 24.0334 27.5994 24.0334ZM40.7864 26.425C40.7864 25.7834 41.1365 25.1417 41.72 24.85C42.5369 24.3834 43.4705 24.2084 44.3457 24.2084C45.571 24.2084 46.738 24.3834 47.905 24.7917C48.0217 24.85 48.1968 24.85 48.3135 24.85C48.6636 24.85 48.9553 24.7334 49.1887 24.5C49.4221 24.2667 49.5388 23.975 49.5388 23.625C49.5388 23.3917 49.4805 23.1 49.3054 22.925C49.1304 22.6917 48.897 22.5167 48.6052 22.4584C47.1465 21.9334 45.6294 21.6417 44.054 21.7C42.0701 21.7 40.553 22.1667 39.5027 23.1C38.4524 23.975 37.8689 25.3167 37.9272 26.7167C37.8689 27.65 38.219 28.525 38.8025 29.225C39.386 29.8667 40.0862 30.3334 40.9031 30.6834C41.895 31.0334 42.9453 31.3834 43.9373 31.6167C44.8125 31.85 45.6877 32.0834 46.563 32.4917C47.0298 32.6667 47.3799 33.075 47.3799 33.6C47.3799 35.1167 46.2129 35.8167 43.8789 35.8167C43.1204 35.8167 42.3618 35.7584 41.6033 35.5834C40.9031 35.4084 40.2612 35.175 39.6194 34.8834C39.4443 34.825 39.2693 34.7667 39.0359 34.7667C38.6858 34.7667 38.394 34.8834 38.1606 35.1167C37.9272 35.35 37.8105 35.7 37.8105 35.9917C37.8105 36.4 37.9856 36.8084 38.3357 37.0417C40.0862 37.975 42.0701 38.5 44.054 38.4417C45.9795 38.4417 47.4966 37.975 48.5469 37.1C49.5388 36.2834 50.1807 35.0584 50.1223 33.775C50.1807 32.8417 49.8889 31.9084 49.3054 31.15C48.7803 30.5084 48.0801 30.0417 47.3215 29.6917C46.3296 29.3417 45.3376 28.9917 44.2874 28.7584C43.3538 28.5834 42.4202 28.2917 41.5449 27.8834C41.1365 27.5917 40.7864 27.0084 40.7864 26.425ZM61.6755 35.525C61.5588 35.525 61.4421 35.525 61.3254 35.5834C61.2087 35.5834 61.1504 35.6417 61.0337 35.6417C60.6252 35.7584 60.2168 35.8167 59.75 35.8167C59.2249 35.8167 58.7581 35.7 58.2913 35.4667C57.8828 35.2334 57.7078 34.7084 57.7078 33.8917V24.3834H61.2671C61.6172 24.3834 61.9089 24.2667 62.1423 24.0334C62.3757 23.8 62.4924 23.5084 62.4924 23.1584C62.4924 22.5167 62.0256 21.9334 61.3838 21.9334C61.3254 21.9334 61.3254 21.9334 61.2671 21.9334H57.7661V19.425C57.7661 19.25 57.7078 19.075 57.5911 18.9584C57.4744 18.8417 57.3577 18.7834 57.1826 18.7834C56.9492 18.7834 56.7742 18.9 56.6575 19.075L52.398 23.275C52.2229 23.3917 52.1062 23.625 52.1062 23.8C52.1062 24.15 52.3396 24.3834 52.6897 24.3834H54.907V34.125C54.907 36.925 56.4241 38.2667 59.5166 38.2667C60.3918 38.2667 61.3254 38.0917 62.1423 37.6834C62.6091 37.5084 62.8425 37.0417 62.8425 36.575C62.8425 36.2834 62.7258 35.9917 62.4924 35.7584C62.259 35.6417 61.9673 35.525 61.6755 35.525Z" fill="black"/>
</g>
<defs>
<clipPath id="clip0_192_590">
<rect width="239" height="56" fill="white"/>
</clipPath>
</defs>
</svg>
